<svg width="500" height="367" viewBox="0 0 500 367" fill="none" xmlns="http://www.w3.org/2000/svg">
<path d="M130.462 223.255C134.908 226.541 138.387 230.407 140.899 234.852C143.605 239.297 144.958 244.033 144.958 249.058V290.516H97.4118V260.655C97.4118 251.957 95.5756 245.869 91.9034 242.39C88.2311 238.911 83.5924 237.171 77.9874 237.171H56.8235V290.516H9.27731V107.579H56.8235V200.352H73.6387C80.2101 200.352 85.8151 198.806 90.4538 195.713C95.0924 192.428 97.4118 186.049 97.4118 176.579V153.386H144.958V188.176C144.958 196.486 143.702 203.444 141.189 209.049C138.676 214.655 135.101 219.39 130.462 223.255ZM219.552 150.486C229.41 150.486 238.687 152.419 247.384 156.285C256.082 159.957 263.62 164.982 269.998 171.36C276.376 177.739 281.401 185.276 285.073 193.974C288.939 202.671 290.872 211.949 290.872 221.806C290.872 231.663 288.939 240.94 285.073 249.638C281.401 258.335 276.376 265.873 269.998 272.251C263.62 278.629 256.082 283.751 247.384 287.617C238.687 291.289 229.41 293.125 219.552 293.125C209.695 293.125 200.418 291.289 191.721 287.617C183.023 283.751 175.485 278.629 169.107 272.251C162.729 265.873 157.607 258.335 153.742 249.638C150.069 240.94 148.233 231.663 148.233 221.806C148.233 211.949 150.069 202.671 153.742 193.974C157.607 185.276 162.729 177.739 169.107 171.36C175.485 164.982 183.023 159.957 191.721 156.285C200.418 152.419 209.695 150.486 219.552 150.486ZM219.552 245.579C226.124 245.579 231.729 243.26 236.368 238.621C241.006 233.982 243.326 228.377 243.326 221.806C243.326 215.234 241.006 209.629 236.368 204.991C231.729 200.352 226.124 198.033 219.552 198.033C212.981 198.033 207.376 200.352 202.737 204.991C198.099 209.629 195.779 215.234 195.779 221.806C195.779 228.377 198.099 233.982 202.737 238.621C207.376 243.26 212.981 245.579 219.552 245.579ZM295.105 290.516V153.096H342.651V290.516H295.105ZM335.693 140.919C331.055 145.558 325.45 147.877 318.878 147.877C312.307 147.877 306.702 145.558 302.063 140.919C297.424 136.281 295.105 130.676 295.105 124.104C295.105 117.533 297.424 111.928 302.063 107.289C306.702 102.65 312.307 100.331 318.878 100.331C325.45 100.331 331.055 102.65 335.693 107.289C340.332 111.928 342.651 117.533 342.651 124.104C342.651 130.676 340.332 136.281 335.693 140.919ZM492.397 153.386V221.806C492.397 231.663 490.465 240.94 486.599 249.638C482.927 258.335 477.902 265.873 471.523 272.251C465.145 278.629 457.607 283.751 448.91 287.617C440.213 291.289 430.935 293.125 421.078 293.125C411.221 293.125 401.944 291.289 393.246 287.617C384.549 283.751 377.011 278.629 370.633 272.251C364.255 265.873 359.133 258.335 355.267 249.638C351.595 240.94 349.759 231.663 349.759 221.806V153.386H397.305V221.806C397.305 228.57 399.624 234.272 404.263 238.911C408.902 243.356 414.507 245.579 421.078 245.579C427.65 245.579 433.255 243.356 437.893 238.911C442.532 234.272 444.851 228.57 444.851 221.806V153.386H492.397Z" fill="white"/>
<circle cx="471.169" cy="124.396" r="23.1686" fill="#C8FF32"/>
<path d="M101.327 141.454C98.1881 141.454 95.4264 140.719 93.0421 139.248C90.6579 137.778 88.7903 135.791 87.4392 133.288C86.0881 130.745 85.4126 127.884 85.4126 124.705C85.4126 121.526 86.0881 118.684 87.4392 116.181C88.7903 113.677 90.6579 111.711 93.0421 110.28C95.4264 108.81 98.1881 108.075 101.327 108.075C103.314 108.075 105.182 108.432 106.93 109.147C108.679 109.863 110.228 110.836 111.58 112.068C112.931 113.26 113.944 114.651 114.619 116.241L110.566 118.327C109.771 116.618 108.56 115.227 106.93 114.154C105.301 113.081 103.433 112.545 101.327 112.545C99.2213 112.545 97.3139 113.081 95.6052 114.154C93.9362 115.188 92.605 116.638 91.6116 118.506C90.6579 120.333 90.1811 122.42 90.1811 124.764C90.1811 127.069 90.6579 129.155 91.6116 131.023C92.605 132.851 93.9362 134.301 95.6052 135.374C97.3139 136.447 99.2213 136.983 101.327 136.983C103.433 136.983 105.281 136.447 106.871 135.374C108.5 134.301 109.732 132.871 110.566 131.082L114.619 133.288C113.944 134.838 112.931 136.228 111.58 137.46C110.228 138.692 108.679 139.666 106.93 140.381C105.182 141.096 103.314 141.454 101.327 141.454ZM139.809 141.454C136.789 141.454 134.048 140.739 131.584 139.308C129.12 137.838 127.153 135.851 125.683 133.347C124.252 130.804 123.537 127.923 123.537 124.705C123.537 121.526 124.252 118.684 125.683 116.181C127.113 113.677 129.041 111.711 131.465 110.28C133.928 108.81 136.71 108.075 139.809 108.075C142.909 108.075 145.671 108.79 148.095 110.22C150.558 111.651 152.486 113.618 153.876 116.121C155.307 118.625 156.022 121.486 156.022 124.705C156.022 127.963 155.287 130.864 153.817 133.407C152.346 135.91 150.38 137.877 147.916 139.308C145.492 140.739 142.79 141.454 139.809 141.454ZM139.809 136.983C141.955 136.983 143.882 136.447 145.591 135.374C147.34 134.301 148.711 132.831 149.704 130.963C150.737 129.096 151.254 127.009 151.254 124.705C151.254 122.4 150.737 120.333 149.704 118.506C148.711 116.678 147.34 115.227 145.591 114.154C143.882 113.081 141.955 112.545 139.809 112.545C137.664 112.545 135.716 113.081 133.968 114.154C132.259 115.227 130.888 116.678 129.855 118.506C128.822 120.333 128.305 122.4 128.305 124.705C128.305 127.009 128.822 129.096 129.855 130.963C130.888 132.831 132.259 134.301 133.968 135.374C135.716 136.447 137.664 136.983 139.809 136.983ZM168.405 140.739V113.26H162.027V108.79H168.405V105.929C168.405 103.703 168.902 101.836 169.895 100.326C170.888 98.776 172.2 97.6038 173.829 96.8091C175.458 96.0143 177.207 95.6169 179.074 95.6169C179.472 95.6169 179.929 95.6567 180.445 95.7361C180.962 95.7759 181.379 95.8355 181.697 95.915V99.9682C181.419 99.8887 181.041 99.8489 180.564 99.8489C180.088 99.8092 179.75 99.7893 179.551 99.7893C177.644 99.7893 176.054 100.246 174.783 101.16C173.511 102.074 172.875 103.664 172.875 105.929V108.79H190.817V113.26H172.875V140.739H168.405ZM191.234 140.739V113.26H184.856V108.79H191.234V105.929C191.234 103.703 191.731 101.836 192.724 100.326C193.717 98.776 195.029 97.6038 196.658 96.8091C198.287 96.0143 200.036 95.6169 201.903 95.6169C202.301 95.6169 202.758 95.6567 203.274 95.7361C203.791 95.7759 204.208 95.8355 204.526 95.915V99.9682C204.248 99.8887 203.87 99.8489 203.393 99.8489C202.917 99.8092 202.579 99.7893 202.38 99.7893C200.473 99.7893 198.883 100.246 197.612 101.16C196.34 102.074 195.704 103.664 195.704 105.929V108.79H203.513V113.26H195.704V140.739H191.234ZM226.526 141.454C223.546 141.454 220.844 140.739 218.42 139.308C216.035 137.838 214.148 135.831 212.757 133.288C211.366 130.745 210.671 127.864 210.671 124.645C210.671 121.426 211.346 118.585 212.698 116.121C214.049 113.618 215.876 111.651 218.181 110.22C220.526 108.79 223.148 108.075 226.049 108.075C228.354 108.075 230.4 108.512 232.189 109.386C234.017 110.22 235.566 111.373 236.838 112.843C238.109 114.274 239.083 115.903 239.759 117.731C240.434 119.519 240.772 121.367 240.772 123.274C240.772 123.671 240.752 124.128 240.712 124.645C240.673 125.122 240.613 125.619 240.533 126.135H213.532V121.963H237.97L235.825 123.751C236.182 121.565 235.924 119.618 235.05 117.91C234.215 116.161 233.003 114.79 231.414 113.797C229.824 112.764 228.036 112.247 226.049 112.247C224.062 112.247 222.215 112.764 220.506 113.797C218.837 114.83 217.526 116.28 216.572 118.148C215.618 119.976 215.241 122.161 215.439 124.705C215.241 127.248 215.638 129.473 216.631 131.38C217.665 133.248 219.055 134.698 220.804 135.732C222.592 136.765 224.499 137.281 226.526 137.281C228.871 137.281 230.838 136.725 232.427 135.612C234.017 134.5 235.308 133.109 236.301 131.44L240.116 133.467C239.48 134.897 238.507 136.228 237.195 137.46C235.884 138.652 234.315 139.626 232.487 140.381C230.698 141.096 228.712 141.454 226.526 141.454ZM265.582 141.454C262.602 141.454 259.899 140.739 257.475 139.308C255.091 137.838 253.204 135.831 251.813 133.288C250.422 130.745 249.727 127.864 249.727 124.645C249.727 121.426 250.402 118.585 251.753 116.121C253.104 113.618 254.932 111.651 257.237 110.22C259.582 108.79 262.204 108.075 265.105 108.075C267.41 108.075 269.456 108.512 271.244 109.386C273.072 110.22 274.622 111.373 275.894 112.843C277.165 114.274 278.139 115.903 278.814 117.731C279.49 119.519 279.828 121.367 279.828 123.274C279.828 123.671 279.808 124.128 279.768 124.645C279.728 125.122 279.669 125.619 279.589 126.135H252.588V121.963H277.026L274.88 123.751C275.238 121.565 274.98 119.618 274.105 117.91C273.271 116.161 272.059 114.79 270.47 113.797C268.88 112.764 267.092 112.247 265.105 112.247C263.118 112.247 261.27 112.764 259.562 113.797C257.893 114.83 256.581 116.28 255.628 118.148C254.674 119.976 254.296 122.161 254.495 124.705C254.296 127.248 254.694 129.473 255.687 131.38C256.72 133.248 258.111 134.698 259.86 135.732C261.648 136.765 263.555 137.281 265.582 137.281C267.926 137.281 269.893 136.725 271.483 135.612C273.072 134.5 274.364 133.109 275.357 131.44L279.172 133.467C278.536 134.897 277.563 136.228 276.251 137.46C274.94 138.652 273.37 139.626 271.542 140.381C269.754 141.096 267.767 141.454 265.582 141.454Z" fill="white"/>
</svg>
